<svg xmlns="http://www.w3.org/2000/svg" width="800" height="84"><path data-name="パス 35" d="M51.4 23H0V0h51.4zm58.3-23H58.3v23h51.4V0zm0 30.2H58.3v23h51.4v-23zM168.1 0h-51.4v23h51.4zm0 30.2h-51.4v23h51.4zm0 30.2h-51.4v23h51.4zm159-6.4V40.1h-24.2V54zm8.2-54h-40.6l-12.1 11.8V84h14.5V13.9h35.7V84h14.5V11.8zM659 48V34.2h-33.3V48zm5.4-48h-58.9v84h58.9V70.2H620V13.9h44.4zm45.4 70.2h-28.7V84h52.5V70.2zm-14.1-5.8V0h-14.6v64.4zm-429.9 0V46.5L253.7 34h-37.5V19.6h-14.5v17l11.4 11.1h38.1v16.6h14.6zm-14.5 5.8h-49.5V84h52l12.1-12.5v-1.3zm-35-56.3h49.5V0h-52l-12.1 11.8v2h14.6zm212.5 50.5V35.1h-36.3V49h21.7v15.5h14.6zm-50-50.5h50V0h-51.5l-13 11.8v2.1zm35.4 56.3h-35.4V19.6h-14.5v52.6L376.5 84h40.4l11.8-11.8v-2zM490.1 54V40.1h-24.2V54zm8.2-54h-40.6l-12.1 11.8V84h14.5V13.9h35.7V84h14.5V11.8zm28.9 64.4h14.5V19.6h-14.5zM539.5 0l-12.3 11.8v2h61.4V0zm2.2 70.2h-14.5v2L539.5 84h49.1V70.2h-46.9zm234.4 0h-28.7V84H800V70.2zm-14-5.8V0h-14.6v64.4z" fill="#fff"/></svg>