<svg xmlns="http://www.w3.org/2000/svg" width="800" height="84.1"><g data-name="グループ 74"><path data-name="長方形 43" fill="#185b37" d="M0 0h51.4v23H0z"/><path data-name="長方形 44" fill="#107c41" d="M58.3 0h51.4v23H58.3z"/><path data-name="長方形 45" fill="#107c41" d="M58.3 30.2h51.4v23H58.3z"/><path data-name="長方形 46" fill="#21a365" d="M116.7 0h51.4v23h-51.4z"/><path data-name="長方形 47" fill="#21a365" d="M116.7 30.2h51.4v23h-51.4z"/><path data-name="長方形 48" fill="#21a365" d="M116.7 60.4h51.4v23h-51.4z"/><g data-name="グループ 66"><path data-name="長方形 49" d="M302.9 40.2h24.2v13.9h-24.2z"/><path data-name="パス 36" d="M335.3 0h-40.6l-12.1 11.9v72.2h14.6V13.9h35.6v70.2h14.6V11.9z"/></g><g data-name="グループ 67"><path data-name="長方形 50" d="M625.7 34.2H659v13.9h-33.3z"/><path data-name="パス 37" d="M664.4 0h-59v84.1h59V70.2H620V13.9h44.4z"/></g><g data-name="グループ 68"><path data-name="パス 38" d="M709.8 70.2h-28.6v13.9h52.5V70.2z"/><path data-name="長方形 51" d="M681.2 0h14.6v64.4h-14.6z"/></g><g data-name="グループ 69"><path data-name="パス 39" d="M265.8 64.5v-18l-12-12.5h-37.5V19.6h-14.6v17.1l11.4 11.1h38.2v16.7z"/><path data-name="パス 40" d="M251.3 70.2h-49.6v13.9h52.1l12-12.6v-1.3z"/><path data-name="パス 41" d="M216.3 13.9h49.5V0h-52l-12.1 11.9v2z"/></g><g data-name="グループ 70"><path data-name="パス 42" d="M428.8 64.5V35.1h-36.3V49h21.7v15.5z"/><path data-name="パス 43" d="M378.8 13.9h50V0h-51.6l-13 11.8v2.1z"/><path data-name="パス 44" d="M414.2 70.2h-35.4V19.6h-14.6v52.7l12.3 11.8h40.4l11.9-11.9v-2z"/></g><g data-name="グループ 71"><path data-name="長方形 52" d="M465.9 40.2h24.2v13.9h-24.2z"/><path data-name="パス 45" d="M498.3 0h-40.6l-12.1 11.9v72.2h14.5V13.9h35.7v70.2h14.6V11.9z"/></g><g data-name="グループ 72"><path data-name="長方形 53" d="M527.2 19.6h14.5v44.8h-14.5z"/><path data-name="パス 46" d="M539.5 0l-12.3 11.9v2h61.4V0z"/><path data-name="パス 47" d="M541.7 70.2h-14.5v2.1l12.3 11.8h49.1V70.2h-46.9z"/></g><g data-name="グループ 73"><path data-name="パス 48" d="M776.1 70.2h-28.6v13.9H800V70.2z"/><path data-name="長方形 54" d="M747.5 0h14.6v64.4h-14.6z"/></g></g></svg>