<svg xmlns="http://www.w3.org/2000/svg" width="40.423" height="40.423"><path data-name="パス 7" d="M6.127 35.369h4.167a1.074 1.074 0 001.074-1.074v-9.419a1.074 1.074 0 00-1.074-1.074H6.127a1.075 1.075 0 00-1.074 1.074v9.419a1.075 1.075 0 001.074 1.074z" fill="#107c41"/><path data-name="パス 8" d="M15.601 35.369h4.167a1.074 1.074 0 001.074-1.074V18.56a1.074 1.074 0 00-1.074-1.074h-4.167a1.074 1.074 0 00-1.074 1.074v15.735a1.075 1.075 0 001.074 1.074z" fill="#107c41"/><path data-name="パス 9" d="M25.075 35.37h4.167a1.074 1.074 0 001.074-1.074V10.981a1.074 1.074 0 00-1.074-1.074h-4.167a1.074 1.074 0 00-1.074 1.074v23.314a1.075 1.075 0 001.074 1.075z" fill="#107c41"/><path data-name="パス 10" d="M34.549 35.37h4.167a1.074 1.074 0 001.074-1.074V3.402a1.074 1.074 0 00-1.074-1.074h-4.167a1.074 1.074 0 00-1.074 1.074v30.894a1.075 1.075 0 001.074 1.074z" fill="#107c41"/><path data-name="パス 11" d="M39.348 38.054H3.6a1.075 1.075 0 01-1.074-1.074V1.074A1.075 1.075 0 001.452 0h-.377A1.075 1.075 0 000 1.074v38.274a1.075 1.075 0 001.074 1.075h38.274a1.074 1.074 0 001.074-1.074v-.22a1.074 1.074 0 00-1.074-1.075z" fill="#107c41"/></svg>