<svg data-name="豆電球のアイコン素材 その2" xmlns="http://www.w3.org/2000/svg" width="10.314" height="11.5"><path data-name="パス 17" d="M4.626 2.297a4.064 4.064 0 00-2.2 2.2.693.693 0 00.375.908.685.685 0 00.266.052.694.694 0 00.642-.43 2.7 2.7 0 011.445-1.445.694.694 0 10-.53-1.283z" fill="#fff"/><path data-name="パス 18" d="M3.536 10.325h3.283l.162-.844H3.373z" fill="#fff"/><path data-name="パス 19" d="M5.143 11.5c.592 0 1.072-.357 1.072-.8H4.07c.001.443.481.8 1.073.8z" fill="#fff"/><path data-name="パス 20" d="M1.69 8.43c.1.1.194.2.3.3l.7-.762a5.915 5.915 0 01-.223-.225z" fill="#fff"/><path data-name="パス 21" d="M.004 4.729v.424l.736-.038h.295v-.329z" fill="#fff"/><path data-name="パス 22" d="M2.714 2.258l-.69-.768q-.155.144-.3.3l.763.7q.114-.124.227-.232z" fill="#fff"/><path data-name="パス 23" d="M5.158 1.032h.173L5.386 0h-.421l.064 1.031z" fill="#fff"/><path data-name="パス 24" d="M10.311 4.762l-1.031.053v.336l1.031.06q.005-.123 0-.248c.004-.066.002-.133 0-.201z" fill="#fff"/><path data-name="パス 25" d="M7.625 2.284q.115.109.223.224l.769-.689-.3-.3z" fill="#fff"/><path data-name="パス 26" d="M7.59 7.998l.687.77c.1-.095.2-.194.3-.3l-.762-.7a2.89 2.89 0 01-.225.23z" fill="#fff"/><path data-name="パス 27" d="M7.18 3.139a2.842 2.842 0 00-4.046 0 2.893 2.893 0 00-.838 2.043 3.59 3.59 0 00.935 2.332A4.308 4.308 0 014 8.449h-.307l.129.671h2.7l.127-.671h-.34a4.309 4.309 0 01.769-.935 3.59 3.59 0 00.935-2.332 2.9 2.9 0 00-.833-2.043zM4.891 8.055a.11.11 0 01-.028.007.092.092 0 01-.093-.04L4.017 6.67a.073.073 0 01.046-.1.1.1 0 01.121.033l.753 1.352a.073.073 0 01-.046.097zm-.013-4.316a1.9 1.9 0 00-.611.414 1.939 1.939 0 00-.41.617.491.491 0 01-.454.307.481.481 0 01-.188-.037.5.5 0 01-.265-.648 2.887 2.887 0 011.554-1.568.491.491 0 01.642.268.5.5 0 01-.268.647zm1.416 2.873l-.833 1.39a.1.1 0 01-.1.044.1.1 0 01-.028-.006.067.067 0 01-.041-.1l.833-1.39a.105.105 0 01.123-.039.067.067 0 01.046.102z" fill="#fff"/></svg>