<svg xmlns="http://www.w3.org/2000/svg" width="40.838" height="24.996"><g fill="#107c41"><path data-name="パス 12" d="M36.656 0H4.181A4.187 4.187 0 000 4.182v15.384a5.436 5.436 0 005.429 5.43h29.979a5.436 5.436 0 005.429-5.43V4.182A4.187 4.187 0 0036.656 0zm2.069 19.566a3.321 3.321 0 01-3.317 3.317H5.429a3.321 3.321 0 01-3.317-3.317V4.182a2.071 2.071 0 012.069-2.069h32.475a2.071 2.071 0 012.069 2.069v15.384z"/><path data-name="長方形 4" d="M15.138 10.738h3.52v3.521h-3.52z"/><path data-name="長方形 5" d="M20.419 10.738h3.52v3.521h-3.52z"/><path data-name="長方形 6" d="M25.7 10.738h3.52v3.521H25.7z"/><path data-name="長方形 7" d="M32.741 16.019h3.52v3.52h-3.52z"/><path data-name="長方形 8" d="M15.138 5.457h3.52v3.52h-3.52z"/><path data-name="長方形 9" d="M9.857 10.738h3.52v3.521h-3.52z"/><path data-name="長方形 10" d="M9.857 5.457h3.52v3.52h-3.52z"/><path data-name="長方形 11" d="M4.577 16.019h3.52v3.52h-3.52z"/><path data-name="長方形 12" d="M4.577 10.738h3.52v3.521h-3.52z"/><path data-name="長方形 13" d="M4.577 5.457h3.52v3.52h-3.52z"/><path data-name="長方形 14" d="M20.419 5.457h3.52v3.52h-3.52z"/><path data-name="長方形 15" d="M25.7 5.457h3.52v3.52H25.7z"/><path data-name="長方形 16" d="M9.857 16.019H30.98v3.52H9.857z"/><path data-name="長方形 17" d="M30.98 5.457h5.281v8.801H30.98z"/></g></svg>