<svg xmlns="http://www.w3.org/2000/svg" width="40.578" height="33.712"><path data-name="パス 6" d="M40.545 25.256a3.363 3.363 0 00-3.286-2.917 3.662 3.662 0 00-2.788 1.286 3.4 3.4 0 00-.754 1.676h-.113c-.3-.025-.784-1.348-1.063-2.18.243-.416.465-.8.644-1.116l.038-.065a4.129 4.129 0 00.905.4 4.047 4.047 0 005.044-2.712 4.142 4.142 0 00-.872-3.852 7.523 7.523 0 00-3.183-2.062 6.084 6.084 0 00-1.878-.3 7.1 7.1 0 00-4.257 1.519 5.329 5.329 0 00-2.047-1.293 6.988 6.988 0 00-2.265-.392c-.207 0-.408.013-.606.032a2.809 2.809 0 00-.383-.68 2.842 2.842 0 00-2.233-1.095h-.058c.183-.686.353-1.265.5-1.744a5.284 5.284 0 008.961-3.756A5.462 5.462 0 0028.3 1.542a10.3 10.3 0 00-5.287-1.54h-.212c-4.608 0-8.5 3.057-10.156 7.977-.239.708-.576 1.865-1.028 3.526h-1.443a2.825 2.825 0 00-2.735 2.118l-.6 2.345a2.823 2.823 0 002.692 3.529c-.171.664-.314 1.215-.416 1.6l-.134.507a28.307 28.307 0 01-.925 2.979A5.005 5.005 0 000 28.553c0 2.417 1.727 4.355 4.4 4.937.06.013.122.024.182.033a14.489 14.489 0 002.168.17 10.91 10.91 0 009.31-4.916 4.182 4.182 0 001.04 2.606 7.5 7.5 0 003.195 2.042 6.109 6.109 0 001.84.284 7.255 7.255 0 004.95-2.122 7.677 7.677 0 005.372 2.127 8.546 8.546 0 001.131-.076c4.788-.641 6.828-5.109 6.989-7.773a2.846 2.846 0 00-.032-.609zm-23.284-8.583c-.621 2.634-1.3 5.412-1.638 6.507-1.211 3.9-4.048 8.55-10.62 7.552-1.147-.25-2.179-.975-2.179-2.179A2.18 2.18 0 016.7 27.191a3.339 3.339 0 001.427 1.134c2.194-.151 3.1-4.237 3.708-6.507.255-.954.765-2.96 1.331-5.145h-3.6l.606-2.346h3.609c.6-2.261 1.181-4.391 1.536-5.448 1.248-3.708 4.086-6.129 7.642-6.054a7.428 7.428 0 013.831 1.1 2.662 2.662 0 011.239 2.073 2.422 2.422 0 01-2.422 2.422 2.284 2.284 0 01-2.231-1.479c-.493-1.623-1.992-2.27-2.838-1.17-.757.984-1.665 3.935-2.346 6.886l-.385 1.665h3.638l-.6 2.346h-3.584zm15.948 14.165a5.181 5.181 0 01-5.7-3.708l-.246-.68c-.613 1.021-1.206 1.978-1.546 2.431a4.322 4.322 0 01-4.571 1.851 4.791 4.791 0 01-1.929-1.217 1.345 1.345 0 01-.306-1.183 1.225 1.225 0 011.52-.831 1.153 1.153 0 01.872 1.035c.009.858.644 1.386 1.212.972a12.256 12.256 0 002.118-3.009c.41-.729 1.05-1.842 1.625-2.83-.333-.9-.653-1.745-1.062-2.744-1.239-3.027-3.554-1.816-3.554-2.648a3.207 3.207 0 014.381-1.967c1.227.421 1.952 1.87 2.541 3.577.412-.668.808-1.281 1.1-1.671a4.322 4.322 0 014.584-1.82 4.8 4.8 0 011.922 1.229 1.347 1.347 0 01.3 1.185 1.225 1.225 0 01-1.526.821 1.153 1.153 0 01-.865-1.041c-.006-1.655-1.238-.957-1.205-.98a12.254 12.254 0 00-2.139 2.994c-.327.573-.8 1.383-1.268 2.183l.117.371c.777 2.392 1.476 4.767 3.792 4.957 1.5.122 3.413-.694 3.141-2.195a.684.684 0 01.744-.757c.413 0 .5.529.5.529-.089 1.362-1.161 4.691-4.552 5.146z" fill="#107c41"/></svg>