<svg xmlns="http://www.w3.org/2000/svg" width="48" height="46"><path data-name="パス 16" d="M2 0h46v46H2z" fill="none"/><path data-name="パス 17" d="M40.25 11.583h-6.076L30.667 7.75h-11.5v3.833h9.813l3.507 3.833h7.763v23H9.583V21.167H5.75v17.25a3.845 3.845 0 003.833 3.833H40.25a3.845 3.845 0 003.833-3.833v-23a3.845 3.845 0 00-3.833-3.834zM15.333 26.917a9.583 9.583 0 109.583-9.583 9.587 9.587 0 00-9.583 9.583zm9.583-5.75a5.75 5.75 0 11-5.75 5.75 5.767 5.767 0 015.751-5.75zM9.583 11.583h5.75V7.75h-5.75V2H5.75v5.75H0v3.833h5.75v5.75h3.833z" fill="#fff"/></svg>